<?xml version="1.0" encoding="UTF-8" standalone="no"?>
<!DOCTYPE svg PUBLIC "-//W3C//DTD SVG 1.1//EN"
 "http://www.w3.org/Graphics/SVG/1.1/DTD/svg11.dtd">
<!-- Generated by graphviz version 2.38.0 (20140413.2041)
 -->
<!-- Title: G Pages: 1 -->
<svg width="504pt" height="1054pt"
 viewBox="0.00 0.00 504.28 1054.00" xmlns="http://www.w3.org/2000/svg" xmlns:xlink="http://www.w3.org/1999/xlink">
<g id="graph0" class="graph" transform="scale(1 1) rotate(0) translate(4 1050)">
<title>G</title>
<polygon fill="white" stroke="none" points="-4,4 -4,-1050 500.277,-1050 500.277,4 -4,4"/>
<g id="clust1" class="cluster"><title>cluster_Global</title>
<path fill="none" stroke="gray" d="M321.277,-8C321.277,-8 476.277,-8 476.277,-8 482.277,-8 488.277,-14 488.277,-20 488.277,-20 488.277,-1026 488.277,-1026 488.277,-1032 482.277,-1038 476.277,-1038 476.277,-1038 321.277,-1038 321.277,-1038 315.277,-1038 309.277,-1032 309.277,-1026 309.277,-1026 309.277,-20 309.277,-20 309.277,-14 315.277,-8 321.277,-8"/>
<text text-anchor="middle" x="398.777" y="-1025.2" font-family="Times New Roman,serif" font-size="11.00" fill="gray">Global</text>
</g>
<g id="clust2" class="cluster"><title>cluster_\classes</title>
<path fill="none" stroke="gray" d="M329.277,-392C329.277,-392 468.277,-392 468.277,-392 474.277,-392 480.277,-398 480.277,-404 480.277,-404 480.277,-998 480.277,-998 480.277,-1004 474.277,-1010 468.277,-1010 468.277,-1010 329.277,-1010 329.277,-1010 323.277,-1010 317.277,-1004 317.277,-998 317.277,-998 317.277,-404 317.277,-404 317.277,-398 323.277,-392 329.277,-392"/>
<text text-anchor="middle" x="398.777" y="-997.2" font-family="Times New Roman,serif" font-size="11.00" fill="gray">classes</text>
</g>
<g id="clust3" class="cluster"><title>cluster_\classes\business</title>
<path fill="none" stroke="gray" d="M343.777,-802C343.777,-802 453.777,-802 453.777,-802 459.777,-802 465.777,-808 465.777,-814 465.777,-814 465.777,-970 465.777,-970 465.777,-976 459.777,-982 453.777,-982 453.777,-982 343.777,-982 343.777,-982 337.777,-982 331.777,-976 331.777,-970 331.777,-970 331.777,-814 331.777,-814 331.777,-808 337.777,-802 343.777,-802"/>
<text text-anchor="middle" x="398.777" y="-969.2" font-family="Times New Roman,serif" font-size="11.00" fill="gray">business</text>
</g>
<g id="clust4" class="cluster"><title>cluster_\classes\data</title>
<path fill="none" stroke="gray" d="M337.277,-668C337.277,-668 460.277,-668 460.277,-668 466.277,-668 472.277,-674 472.277,-680 472.277,-680 472.277,-782 472.277,-782 472.277,-788 466.277,-794 460.277,-794 460.277,-794 337.277,-794 337.277,-794 331.277,-794 325.277,-788 325.277,-782 325.277,-782 325.277,-680 325.277,-680 325.277,-674 331.277,-668 337.277,-668"/>
<text text-anchor="middle" x="398.777" y="-781.2" font-family="Times New Roman,serif" font-size="11.00" fill="gray">data</text>
</g>
<g id="clust5" class="cluster"><title>cluster_\classes\entity</title>
<path fill="none" stroke="gray" d="M367.277,-534C367.277,-534 430.277,-534 430.277,-534 436.277,-534 442.277,-540 442.277,-546 442.277,-546 442.277,-648 442.277,-648 442.277,-654 436.277,-660 430.277,-660 430.277,-660 367.277,-660 367.277,-660 361.277,-660 355.277,-654 355.277,-648 355.277,-648 355.277,-546 355.277,-546 355.277,-540 361.277,-534 367.277,-534"/>
<text text-anchor="middle" x="398.777" y="-647.2" font-family="Times New Roman,serif" font-size="11.00" fill="gray">entity</text>
</g>
<g id="clust6" class="cluster"><title>cluster_\classes\util</title>
<path fill="none" stroke="gray" d="M374.277,-400C374.277,-400 423.277,-400 423.277,-400 429.277,-400 435.277,-406 435.277,-412 435.277,-412 435.277,-514 435.277,-514 435.277,-520 429.277,-526 423.277,-526 423.277,-526 374.277,-526 374.277,-526 368.277,-526 362.277,-520 362.277,-514 362.277,-514 362.277,-412 362.277,-412 362.277,-406 368.277,-400 374.277,-400"/>
<text text-anchor="middle" x="398.777" y="-513.2" font-family="Times New Roman,serif" font-size="11.00" fill="gray">util</text>
</g>
<g id="clust9" class="cluster"><title>cluster_\PHPMailer</title>
<path fill="none" stroke="gray" d="M356.277,-60C356.277,-60 441.277,-60 441.277,-60 447.277,-60 453.277,-66 453.277,-72 453.277,-72 453.277,-372 453.277,-372 453.277,-378 447.277,-384 441.277,-384 441.277,-384 356.277,-384 356.277,-384 350.277,-384 344.277,-378 344.277,-372 344.277,-372 344.277,-72 344.277,-72 344.277,-66 350.277,-60 356.277,-60"/>
<text text-anchor="middle" x="398.777" y="-371.2" font-family="Times New Roman,serif" font-size="11.00" fill="gray">PHPMailer</text>
</g>
<g id="clust10" class="cluster"><title>cluster_\PHPMailer\PHPMailer</title>
<path fill="none" stroke="gray" d="M364.277,-68C364.277,-68 433.277,-68 433.277,-68 439.277,-68 445.277,-74 445.277,-80 445.277,-80 445.277,-344 445.277,-344 445.277,-350 439.277,-356 433.277,-356 433.277,-356 364.277,-356 364.277,-356 358.277,-356 352.277,-350 352.277,-344 352.277,-344 352.277,-80 352.277,-80 352.277,-74 358.277,-68 364.277,-68"/>
<text text-anchor="middle" x="398.777" y="-343.2" font-family="Times New Roman,serif" font-size="11.00" fill="gray">PHPMailer</text>
</g>
<!-- \\classes\\business\\FeedbackManager -->
<g id="node1" class="node"><title>\\classes\\business\\FeedbackManager</title>
<polygon fill="none" stroke="black" points="457.777,-954 339.777,-954 339.777,-918 457.777,-918 457.777,-954"/>
<text text-anchor="middle" x="398.777" y="-933.2" font-family="Courier,monospace" font-size="11.00">FeedbackManager</text>
</g>
<!-- \\classes\\business\\UserManager -->
<g id="node2" class="node"><title>\\classes\\business\\UserManager</title>
<polygon fill="none" stroke="black" points="444.277,-900 353.277,-900 353.277,-864 444.277,-864 444.277,-900"/>
<text text-anchor="middle" x="398.777" y="-879.2" font-family="Courier,monospace" font-size="11.00">UserManager</text>
</g>
<!-- \\classes\\business\\Validation -->
<g id="node3" class="node"><title>\\classes\\business\\Validation</title>
<polygon fill="none" stroke="black" points="440.777,-846 356.777,-846 356.777,-810 440.777,-810 440.777,-846"/>
<text text-anchor="middle" x="398.777" y="-825.2" font-family="Courier,monospace" font-size="11.00">Validation</text>
</g>
<!-- \\classes\\data\\FeedbackManagerDB -->
<g id="node4" class="node"><title>\\classes\\data\\FeedbackManagerDB</title>
<polygon fill="none" stroke="black" points="464.277,-766 333.277,-766 333.277,-730 464.277,-730 464.277,-766"/>
<text text-anchor="middle" x="398.777" y="-745.2" font-family="Courier,monospace" font-size="11.00">FeedbackManagerDB</text>
</g>
<!-- \\classes\\data\\UserManagerDB -->
<g id="node5" class="node"><title>\\classes\\data\\UserManagerDB</title>
<polygon fill="none" stroke="black" points="450.777,-712 346.777,-712 346.777,-676 450.777,-676 450.777,-712"/>
<text text-anchor="middle" x="398.777" y="-691.2" font-family="Courier,monospace" font-size="11.00">UserManagerDB</text>
</g>
<!-- \\classes\\entity\\Feedback -->
<g id="node6" class="node"><title>\\classes\\entity\\Feedback</title>
<polygon fill="none" stroke="black" points="434.277,-632 363.277,-632 363.277,-596 434.277,-596 434.277,-632"/>
<text text-anchor="middle" x="398.777" y="-611.2" font-family="Courier,monospace" font-size="11.00">Feedback</text>
</g>
<!-- \\classes\\entity\\User -->
<g id="node7" class="node"><title>\\classes\\entity\\User</title>
<polygon fill="none" stroke="black" points="425.777,-578 371.777,-578 371.777,-542 425.777,-542 425.777,-578"/>
<text text-anchor="middle" x="398.777" y="-557.2" font-family="Courier,monospace" font-size="11.00">User</text>
</g>
<!-- \\classes\\util\\Config -->
<g id="node8" class="node"><title>\\classes\\util\\Config</title>
<polygon fill="none" stroke="black" points="427.277,-498 370.277,-498 370.277,-462 427.277,-462 427.277,-498"/>
<text text-anchor="middle" x="398.777" y="-477.2" font-family="Courier,monospace" font-size="11.00">Config</text>
</g>
<!-- \\classes\\util\\DBUtil -->
<g id="node9" class="node"><title>\\classes\\util\\DBUtil</title>
<polygon fill="none" stroke="black" points="427.277,-444 370.277,-444 370.277,-408 427.277,-408 427.277,-444"/>
<text text-anchor="middle" x="398.777" y="-423.2" font-family="Courier,monospace" font-size="11.00">DBUtil</text>
</g>
<!-- \\PHPMailer\\PHPMailer\\Exception -->
<g id="node10" class="node"><title>\\PHPMailer\\PHPMailer\\Exception</title>
<polygon fill="none" stroke="black" points="437.277,-328 360.277,-328 360.277,-292 437.277,-292 437.277,-328"/>
<text text-anchor="middle" x="398.777" y="-307.2" font-family="Courier,monospace" font-size="11.00">Exception</text>
</g>
<!-- \\Exception -->
<g id="node16" class="node"><title>\\Exception</title>
<ellipse fill="none" stroke="black" cx="130.638" cy="-310" rx="50.0912" ry="18"/>
<text text-anchor="middle" x="130.638" y="-306.3" font-family="Times New Roman,serif" font-size="14.00" fill="gray">\Exception</text>
</g>
<!-- \\PHPMailer\\PHPMailer\\Exception&#45;&gt;\\Exception -->
<g id="edge1" class="edge"><title>\\PHPMailer\\PHPMailer\\Exception&#45;&gt;\\Exception</title>
<path fill="none" stroke="black" d="M360.21,-310C316.15,-310 242.567,-310 190.816,-310"/>
<polygon fill="none" stroke="black" points="190.772,-306.5 180.772,-310 190.772,-313.5 190.772,-306.5"/>
</g>
<!-- \\PHPMailer\\PHPMailer\\OAuth -->
<g id="node11" class="node"><title>\\PHPMailer\\PHPMailer\\OAuth</title>
<polygon fill="none" stroke="black" points="425.777,-274 371.777,-274 371.777,-238 425.777,-238 425.777,-274"/>
<text text-anchor="middle" x="398.777" y="-253.2" font-family="Courier,monospace" font-size="11.00">OAuth</text>
</g>
<!-- \\PHPMailer\\PHPMailer\\PHPMailer -->
<g id="node12" class="node"><title>\\PHPMailer\\PHPMailer\\PHPMailer</title>
<polygon fill="none" stroke="black" points="437.277,-220 360.277,-220 360.277,-184 437.277,-184 437.277,-220"/>
<text text-anchor="middle" x="398.777" y="-199.2" font-family="Courier,monospace" font-size="11.00">PHPMailer</text>
</g>
<!-- \\PHPMailer\\PHPMailer\\POP3 -->
<g id="node13" class="node"><title>\\PHPMailer\\PHPMailer\\POP3</title>
<polygon fill="none" stroke="black" points="425.777,-166 371.777,-166 371.777,-130 425.777,-130 425.777,-166"/>
<text text-anchor="middle" x="398.777" y="-145.2" font-family="Courier,monospace" font-size="11.00">POP3</text>
</g>
<!-- \\PHPMailer\\PHPMailer\\SMTP -->
<g id="node14" class="node"><title>\\PHPMailer\\PHPMailer\\SMTP</title>
<polygon fill="none" stroke="black" points="425.777,-112 371.777,-112 371.777,-76 425.777,-76 425.777,-112"/>
<text text-anchor="middle" x="398.777" y="-91.2" font-family="Courier,monospace" font-size="11.00">SMTP</text>
</g>
<!-- \\UserManagerDBTest -->
<g id="node15" class="node"><title>\\UserManagerDBTest</title>
<polygon fill="none" stroke="black" points="464.277,-52 333.277,-52 333.277,-16 464.277,-16 464.277,-52"/>
<text text-anchor="middle" x="398.777" y="-31.2" font-family="Courier,monospace" font-size="11.00">UserManagerDBTest</text>
</g>
<!-- \\PHPUnit_Framework_TestCase -->
<g id="node17" class="node"><title>\\PHPUnit_Framework_TestCase</title>
<ellipse fill="none" stroke="black" cx="130.638" cy="-34" rx="130.777" ry="18"/>
<text text-anchor="middle" x="130.638" y="-30.3" font-family="Times New Roman,serif" font-size="14.00" fill="gray">\PHPUnit_Framework_TestCase</text>
</g>
<!-- \\UserManagerDBTest&#45;&gt;\\PHPUnit_Framework_TestCase -->
<g id="edge2" class="edge"><title>\\UserManagerDBTest&#45;&gt;\\PHPUnit_Framework_TestCase</title>
<path fill="none" stroke="black" d="M333.012,-34C314.284,-34 293.079,-34 271.633,-34"/>
<polygon fill="none" stroke="black" points="271.435,-30.5001 261.435,-34 271.434,-37.5001 271.435,-30.5001"/>
</g>
</g>
</svg>
